:FULLY-SPECIFIED
:FORCE-ALL-JOINTS-BE-3DOF
:DEGREES
32
root 0.432748 17.247 -19.5734 4.40568 -6.68016 -3.44955
lfemur -21.4359 11.1275 -13.4078
ltibia 96.007 0 0
lfoot 7.41744 -3.34172 0
ltoes -9.49387 0 0
rfemur -19.8916 1.74266 28.5686
rtibia 57.6562 0 0
rfoot -9.29985 -6.12752 0
rtoes -4.5941 0 0
lowerback 18.6513 -0.894984 1.86011
upperback 2.13105 -0.737116 1.15871
thorax -8.12032 -0.390422 0.381398
lowerneck -1.69142 2.20835 0.379224
upperneck -15.8093 2.67508 -2.06229
head -4.46268 1.41269 -0.771984
lclavicle -1.33743e-14 6.0702e-15 0
lhumerus -38.8634 -13.2789 93.1622
lradius 106.354 0 0
lwrist 32.5117 0 0
lhand -39.0082 12.7072 0
lfingers 7.12502 0 0
lthumb -12.0114 42.3399 0
rclavicle -1.33743e-14 6.0702e-15 0
rhumerus -36.4365 11.6955 -88.2587
rradius 96.476 0 0
rwrist -2.33465 0 0
rhand -45.6523 38.6354 0
rfingers 7.12502 0 0
rthumb -18.4105 9.49625 0
33
root 0.443747 17.2514 -19.0361 4.39656 -6.97216 -3.6292
lfemur -21.9014 11.5425 -12.9418
ltibia 97.7753 0 0
lfoot 8.25222 -3.4677 0
ltoes -9.43824 0 0
rfemur -19.3662 1.92838 28.9504
rtibia 56.0246 0 0
rfoot -10.015 -6.15512 0
rtoes -5.01734 0 0
lowerback 18.6318 -0.884379 2.08366
upperback 2.14472 -0.667682 1.26629
thorax -8.09818 -0.363353 0.352556
lowerneck -1.64833 2.28379 0.43413
upperneck -15.9023 2.75385 -2.26123
head -4.48805 1.45741 -0.847952
lclavicle -1.3498e-14 6.49686e-15 0
lhumerus -39.7938 -13.0416 93.4958
lradius 106.112 0 0
lwrist 32.6733 0 0
lhand -39.0668 12.8467 0
lfingers 7.12502 0 0
lthumb -12.0679 42.4763 0
rclavicle -1.3498e-14 6.49686e-15 0
rhumerus -35.8499 11.8018 -88.2572
rradius 96.9727 0 0
rwrist -2.38439 0 0
rhand -45.5484 38.5822 0
rfingers 7.12502 0 0
rthumb -18.3105 9.43294 0
34
root 0.454746 17.2558 -18.4989 4.38744 -7.26415 -3.80885
lfemur -22.3669 11.9576 -12.4758
ltibia 99.5436 0 0
lfoot 9.087 -3.59368 0
ltoes -9.38261 0 0
rfemur -18.8409 2.1141 29.3322
rtibia 54.393 0 0
rfoot -10.7301 -6.18272 0
rtoes -5.44057 0 0
lowerback 18.6122 -0.873775 2.3072
upperback 2.15839 -0.598247 1.37387
thorax -8.07603 -0.336284 0.323715
lowerneck -1.60524 2.35923 0.489036
upperneck -15.9954 2.83261 -2.46017
head -4.51343 1.50214 -0.92392
lclavicle -1.36216e-14 6.92352e-15 0
lhumerus -40.7242 -12.8043 93.8294
lradius 105.869 0 0
lwrist 32.8349 0 0
lhand -39.1254 12.9862 0
lfingers 7.12502 0 0
lthumb -12.1245 42.6126 0
rclavicle -1.36216e-14 6.92352e-15 0
rhumerus -35.2633 11.9082 -88.2557
rradius 97.4694 0 0
rwrist -2.43413 0 0
rhand -45.4445 38.529 0
rfingers 7.12502 0 0
rthumb -18.2106 9.36963 0
35
root 0.465745 17.2602 -17.9616 4.37831 -7.55615 -3.9885
lfemur -22.8324 12.3727 -12.0097
ltibia 101.312 0 0
lfoot 9.92177 -3.71965 0
ltoes -9.32698 0 0
rfemur -18.3156 2.29981 29.714
rtibia 52.7614 0 0
rfoot -11.4452 -6.21033 0
rtoes -5.86381 0 0
lowerback 18.5927 -0.86317 2.53075
upperback 2.17206 -0.528813 1.48145
thorax -8.05388 -0.309215 0.294873
lowerneck -1.56215 2.43467 0.543942
upperneck -16.0885 2.91137 -2.65911
head -4.5388 1.54686 -0.999887
lclavicle -1.37453e-14 7.35018e-15 0
lhumerus -41.6546 -12.567 94.1631
lradius 105.627 0 0
lwrist 32.9966 0 0
lhand -39.184 13.1257 0
lfingers 7.12502 0 0
lthumb -12.181 42.749 0
rclavicle -1.37453e-14 7.35018e-15 0
rhumerus -34.6766 12.0145 -88.2542
rradius 97.9661 0 0
rwrist -2.48387 0 0
rhand -45.3405 38.4758 0
rfingers 7.12502 0 0
rthumb -18.1107 9.30633 0
36
root 0.476744 17.2645 -17.4244 4.36919 -7.84814 -4.16815
lfemur -23.2979 12.7878 -11.5437
ltibia 103.08 0 0
lfoot 10.7565 -3.84563 0
ltoes -9.27135 0 0
rfemur -17.7903 2.48553 30.0959
rtibia 51.1298 0 0
rfoot -12.1603 -6.23793 0
rtoes -6.28705 0 0
lowerback 18.5731 -0.852565 2.7543
upperback 2.18573 -0.459378 1.58903
thorax -8.03173 -0.282146 0.266031
lowerneck -1.51905 2.5101 0.598847
upperneck -16.1816 2.99013 -2.85805
head -4.56417 1.59159 -1.07585
lclavicle -1.38689e-14 7.77684e-15 0
lhumerus -42.5851 -12.3297 94.4967
lradius 105.385 0 0
lwrist 33.1582 0 0
lhand -39.2426 13.2652 0
lfingers 7.12502 0 0
lthumb -12.2375 42.8854 0
rclavicle -1.38689e-14 7.77684e-15 0
rhumerus -34.09 12.1209 -88.2527
rradius 98.4628 0 0
rwrist -2.53361 0 0
rhand -45.2366 38.4226 0
rfingers 7.12502 0 0
rthumb -18.0108 9.24302 0
37
root 0.487743 17.2689 -16.8871 4.36006 -8.14014 -4.3478
lfemur -23.7634 13.2028 -11.0777
ltibia 104.848 0 0
lfoot 11.5913 -3.97161 0
ltoes -9.21572 0 0
rfemur -17.2649 2.67125 30.4777
rtibia 49.4982 0 0
rfoot -12.8754 -6.26553 0
rtoes -6.71029 0 0
lowerback 18.5536 -0.841961 2.97785
upperback 2.19941 -0.389943 1.69661
thorax -8.00959 -0.255077 0.23719
lowerneck -1.47596 2.58554 0.653753
upperneck -16.2746 3.0689 -3.05699
head -4.58955 1.63631 -1.15182
lclavicle -1.39925e-14 8.2035e-15 0
lhumerus -43.5155 -12.0923 94.8304
lradius 105.142 0 0
lwrist 33.3198 0 0
lhand -39.3012 13.4047 0
lfingers 7.12502 0 0
lthumb -12.294 43.0217 0
rclavicle -1.39925e-14 8.2035e-15 0
rhumerus -33.5034 12.2272 -88.2512
rradius 98.9595 0 0
rwrist -2.58335 0 0
rhand -45.1327 38.3694 0
rfingers 7.12502 0 0
rthumb -17.9108 9.17971 0
38
root 0.498742 17.2733 -16.3499 4.35094 -8.43214 -4.52745
lfemur -24.2289 13.6179 -10.6116
ltibia 106.617 0 0
lfoot 12.4261 -4.09758 0
ltoes -9.16009 0 0
rfemur -16.7396 2.85696 30.8595
rtibia 47.8666 0 0
rfoot -13.5905 -6.29313 0
rtoes -7.13353 0 0
lowerback 18.5341 -0.831356 3.2014
upperback 2.21308 -0.320509 1.8042
thorax -7.98744 -0.228008 0.208348
lowerneck -1.43287 2.66098 0.708659
upperneck -16.3677 3.14766 -3.25593
head -4.61492 1.68104 -1.22779
lclavicle -1.41162e-14 8.63016e-15 0
lhumerus -44.4459 -11.855 95.164
lradius 104.9 0 0
lwrist 33.4815 0 0
lhand -39.3598 13.5442 0
lfingers 7.12502 0 0
lthumb -12.3505 43.1581 0
rclavicle -1.41162e-14 8.63016e-15 0
rhumerus -32.9167 12.3335 -88.2497
rradius 99.4562 0 0
rwrist -2.63309 0 0
rhand -45.0287 38.3162 0
rfingers 7.12502 0 0
rthumb -17.8109 9.1164 0
39
root 0.509741 17.2777 -15.8126 4.34181 -8.72413 -4.7071
lfemur -24.6943 14.033 -10.1456
ltibia 108.385 0 0
lfoot 13.2609 -4.22356 0
ltoes -9.10446 0 0
rfemur -16.2143 3.04268 31.2413
rtibia 46.235 0 0
rfoot -14.3057 -6.32073 0
rtoes -7.55677 0 0
lowerback 18.5145 -0.820751 3.42495
upperback 2.22675 -0.251074 1.91178
thorax -7.96529 -0.200939 0.179506
lowerneck -1.38978 2.73642 0.763565
upperneck -16.4608 3.22642 -3.45487
head -4.64029 1.72576 -1.30376
lclavicle -1.42398e-14 9.05682e-15 0
lhumerus -45.3763 -11.6177 95.4977
lradius 104.658 0 0
lwrist 33.6431 0 0
lhand -39.4184 13.6837 0
lfingers 7.12502 0 0
lthumb -12.407 43.2945 0
rclavicle -1.42398e-14 9.05682e-15 0
rhumerus -32.3301 12.4399 -88.2483
rradius 99.9529 0 0
rwrist -2.68284 0 0
rhand -44.9248 38.263 0
rfingers 7.12502 0 0
rthumb -17.711 9.05309 0
